<svg width="22" height="20" viewBox="0 0 22 20" fill="none" xmlns="http://www.w3.org/2000/svg">
<path d="M1.49954 7.5H20.4995M8.99954 1.5L6.99954 7.5L10.9995 19L14.9995 7.5L12.9995 1.5M11.6141 18.7625L20.5727 8.01215C20.7246 7.82995 20.8005 7.73885 20.8295 7.63717C20.8551 7.54751 20.8551 7.45249 20.8295 7.36283C20.8005 7.26114 20.7246 7.17005 20.5727 6.98785L16.2394 1.78785C16.1512 1.68204 16.1072 1.62914 16.0531 1.59111C16.0052 1.55741 15.9518 1.53238 15.8953 1.51717C15.8314 1.5 15.7626 1.5 15.6248 1.5H6.37424C6.2365 1.5 6.16764 1.5 6.10382 1.51717C6.04728 1.53238 5.99385 1.55741 5.94596 1.59111C5.89192 1.62914 5.84783 1.68204 5.75966 1.78785L1.42633 6.98785C1.2745 7.17004 1.19858 7.26114 1.16957 7.36283C1.144 7.45249 1.144 7.54751 1.16957 7.63716C1.19858 7.73885 1.2745 7.82995 1.42633 8.01215L10.385 18.7625C10.596 19.0158 10.7015 19.1424 10.8279 19.1886C10.9387 19.2291 11.0603 19.2291 11.1712 19.1886C11.2975 19.1424 11.4031 19.0158 11.6141 18.7625Z" stroke="white" stroke-width="1.5" stroke-linecap="round" stroke-linejoin="round"/>
</svg>
