<svg width="43" height="43" viewBox="0 0 43 43" fill="none" xmlns="http://www.w3.org/2000/svg">
<g clip-path="url(#clip0_413_1471)">
<path d="M42.2837 17.2838L40.7941 18.7376L40.9473 16.1527L34.0953 24.0199L30.2915 21.7148L20.9261 30.9629L17.3037 28.0328L3.13605 42.5L0.5 38.9009L17.2998 25.4085L20.9067 28.3526L29.9919 19.0608L33.5814 21.3041L40.0401 15.0007L37.718 14.8316L39.2076 13.3777L42.5 13.6185L42.2837 17.2838Z" fill="#E01E1E"/>
<path d="M18.8134 21.993C23.935 21.993 28.087 17.8305 28.087 12.6958C28.087 7.56109 23.935 3.39861 18.8134 3.39861C13.6917 3.39861 9.53979 7.56109 9.53979 12.6958C9.53979 17.8305 13.6917 21.993 18.8134 21.993Z" fill="#FFD550"/>
<path d="M28.1036 2.61182C28.5854 2.12873 28.5854 1.34548 28.1036 0.86239C27.6217 0.379298 26.8404 0.379299 26.3586 0.862391C25.8767 1.34548 25.8767 2.12873 26.3586 2.61182C26.8404 3.09491 27.6217 3.09491 28.1036 2.61182Z" fill="#FFD550"/>
<path d="M10.0943 24.8915C10.8927 24.8915 11.5399 24.2426 11.5399 23.4421C11.5399 22.6417 10.8927 21.9928 10.0943 21.9928C9.29591 21.9928 8.64868 22.6417 8.64868 23.4421C8.64868 24.2426 9.29591 24.8915 10.0943 24.8915Z" fill="#FFD550"/>
<path d="M30.0913 27.0032C30.673 27.0032 31.1445 26.5304 31.1445 25.9473C31.1445 25.3642 30.673 24.8915 30.0913 24.8915C29.5097 24.8915 29.0381 25.3642 29.0381 25.9473C29.0381 26.5304 29.5097 27.0032 30.0913 27.0032Z" fill="#FFD550"/>
<path d="M19.3371 18.0385V19.7054H18.2972V18.0999C16.8773 18.0999 15.7239 17.8798 14.8375 17.4393V16.1026C15.2239 16.3638 15.7524 16.5827 16.4223 16.7594C17.0923 16.9361 17.7173 17.0243 18.2972 17.0243V13.0912C16.8306 12.5484 15.8807 12.0479 15.4474 11.5895C15.014 11.1312 14.7975 10.5897 14.7975 9.96474C14.7975 9.2223 15.1274 8.58087 15.7874 8.04045C16.4474 7.50016 17.2838 7.17627 18.2972 7.06876V5.686H19.3371V7.03804C20.6435 7.06876 21.547 7.21223 22.0469 7.4682V8.77416C21.367 8.36448 20.4635 8.14422 19.3371 8.1135V12.1695C20.7236 12.6764 21.6719 13.1669 22.1819 13.6405C22.6918 14.1143 22.9469 14.6533 22.9469 15.2575C22.9469 15.9847 22.6284 16.5954 21.992 17.0897C21.3553 17.584 20.4704 17.9001 19.3373 18.0384L19.3371 18.0385ZM18.2972 11.7393V8.15958C17.7372 8.24673 17.2938 8.4374 16.9672 8.73183C16.6405 9.02639 16.4773 9.38362 16.4773 9.80342C16.4773 10.2439 16.6105 10.6049 16.8772 10.8866C17.1437 11.1683 17.6171 11.4525 18.297 11.7393H18.2972ZM19.3371 13.4908V16.963C20.6236 16.7479 21.267 16.2153 21.267 15.3653C21.267 14.6585 20.6236 14.0338 19.3371 13.4909V13.4908Z" fill="white"/>
</g>
<defs>
<clipPath id="clip0_413_1471">
<rect width="42" height="42" fill="white" transform="translate(0.5 0.5)"/>
</clipPath>
</defs>
</svg>
