<svg width="63" height="63" viewBox="0 0 63 63" fill="none" xmlns="http://www.w3.org/2000/svg">
<g clip-path="url(#clip0_350_912)">
<path d="M44.2829 32.508L31.5134 11.3477L18.7438 32.508L31.5134 53.6748L44.2829 32.508Z" fill="url(#paint0_linear_350_912)"/>
<path d="M31.5134 53.6748V11.3477L44.2829 32.508L31.5134 53.6748Z" fill="url(#paint1_linear_350_912)"/>
<path d="M42.0801 32.508L31.5134 27.515L20.9399 32.508L31.5134 37.5076L42.0801 32.508Z" fill="#6F4FF2"/>
<path d="M37.3474 32.508L31.5134 29.7511L25.6726 32.508L31.5134 35.2715L37.3474 32.508Z" fill="url(#paint2_linear_350_912)"/>
<path d="M63 31.5C63 48.8954 48.8954 63 31.5 63C24.451 63 17.9428 60.6837 12.6894 56.7721C8.24378 53.4612 4.71263 48.9955 2.51651 43.829L4.59248 41.5394L5.6872 40.3312C9.35853 51.0648 19.5181 58.788 31.5 58.788C44.5098 58.788 55.3836 49.6831 58.1205 37.5009L53.1475 32.4746L59.7625 26.4069L62.1456 24.2174C62.6996 26.5537 63 28.9901 63 31.5Z" fill="url(#paint3_linear_350_912)"/>
<path d="M61.3379 21.4072L59.0817 23.5099L57.9002 24.6113C54.8496 12.8764 44.1894 4.20534 31.5 4.20534C17.7625 4.20534 6.40145 14.3582 4.49904 27.5617L9.8525 32.4746L4.87952 37.501C4.87952 37.501 4.87952 37.5143 4.87952 37.521L3.69135 38.7292L1.45517 41.0054C0.507303 38.0016 -0.00668335 34.8109 -0.00668335 31.5C-8.20635e-06 14.0979 14.1046 0 31.5 0C34.0432 0 36.513 0.300381 38.876 0.874444C49.4228 3.39765 57.9002 11.2409 61.3379 21.4072Z" fill="url(#paint4_linear_350_912)"/>
<path d="M4.88621 37.521L3.69803 38.7292C3.10395 36.4196 2.78354 33.9965 2.78354 31.5C2.78354 15.6399 15.6399 2.78354 31.5 2.78354C44.5833 2.78354 55.624 11.5347 59.0817 23.5099L57.9002 24.6113C54.8497 12.8764 44.1894 4.20534 31.5 4.20534C17.7626 4.20534 6.40147 14.3582 4.49905 27.5617L9.85252 32.4746L4.87953 37.501C4.87953 37.501 4.87953 37.5143 4.87953 37.521H4.88621Z" fill="url(#paint5_linear_350_912)"/>
<path d="M60.2098 31.5C60.2098 47.3535 47.3535 60.2098 31.5 60.2098C19.171 60.2098 8.65766 52.4399 4.5925 41.5394L5.68722 40.3312C9.35855 51.0648 19.5181 58.788 31.5 58.788C44.5099 58.788 55.3837 49.6831 58.1205 37.5009L53.1475 32.4746L59.7626 26.4069C60.0563 28.0623 60.2098 29.7645 60.2098 31.5Z" fill="url(#paint6_linear_350_912)"/>
<path d="M16.8946 32.5163L14.4024 30.0241L11.9102 32.5163L14.4024 35.0085L16.8946 32.5163Z" fill="url(#paint7_linear_350_912)"/>
<path d="M51.2225 32.514L48.7303 30.0218L46.2382 32.514L48.7303 35.0061L51.2225 32.514Z" fill="url(#paint8_linear_350_912)"/>
<g clip-path="url(#clip1_350_912)">
<path d="M44.2829 32.508L31.5134 11.3477L18.7438 32.508L31.5134 53.6748L44.2829 32.508Z" fill="url(#paint9_linear_350_912)"/>
<path d="M31.5134 53.6748V11.3477L44.2829 32.508L31.5134 53.6748Z" fill="url(#paint10_linear_350_912)"/>
<path d="M42.0801 32.508L31.5134 27.515L20.9399 32.508L31.5134 37.5076L42.0801 32.508Z" fill="#6F4FF2"/>
<path d="M37.3474 32.508L31.5134 29.7511L25.6726 32.508L31.5134 35.2715L37.3474 32.508Z" fill="url(#paint11_linear_350_912)"/>
<path d="M63 31.5C63 48.8954 48.8954 63 31.5 63C24.451 63 17.9428 60.6837 12.6894 56.7721C8.24378 53.4612 4.71263 48.9955 2.51651 43.829L4.59248 41.5394L5.6872 40.3312C9.35853 51.0648 19.5181 58.788 31.5 58.788C44.5098 58.788 55.3836 49.6831 58.1205 37.5009L53.1475 32.4746L59.7625 26.4069L62.1456 24.2174C62.6996 26.5537 63 28.9901 63 31.5Z" fill="url(#paint12_linear_350_912)"/>
<path d="M61.3379 21.4072L59.0817 23.5099L57.9002 24.6113C54.8496 12.8764 44.1894 4.20534 31.5 4.20534C17.7625 4.20534 6.40145 14.3582 4.49904 27.5617L9.8525 32.4746L4.87952 37.501C4.87952 37.501 4.87952 37.5143 4.87952 37.521L3.69135 38.7292L1.45517 41.0054C0.507303 38.0016 -0.00668335 34.8109 -0.00668335 31.5C-8.20635e-06 14.0979 14.1046 0 31.5 0C34.0432 0 36.513 0.300381 38.876 0.874444C49.4228 3.39765 57.9002 11.2409 61.3379 21.4072Z" fill="url(#paint13_linear_350_912)"/>
<path d="M4.88621 37.521L3.69803 38.7292C3.10395 36.4196 2.78354 33.9965 2.78354 31.5C2.78354 15.6399 15.6399 2.78354 31.5 2.78354C44.5833 2.78354 55.624 11.5347 59.0817 23.5099L57.9002 24.6113C54.8497 12.8764 44.1894 4.20534 31.5 4.20534C17.7626 4.20534 6.40147 14.3582 4.49905 27.5617L9.85252 32.4746L4.87953 37.501C4.87953 37.501 4.87953 37.5143 4.87953 37.521H4.88621Z" fill="url(#paint14_linear_350_912)"/>
<path d="M60.2098 31.5C60.2098 47.3535 47.3535 60.2098 31.5 60.2098C19.171 60.2098 8.65766 52.4399 4.5925 41.5394L5.68722 40.3312C9.35855 51.0648 19.5181 58.788 31.5 58.788C44.5099 58.788 55.3837 49.6831 58.1205 37.5009L53.1475 32.4746L59.7626 26.4069C60.0563 28.0623 60.2098 29.7645 60.2098 31.5Z" fill="url(#paint15_linear_350_912)"/>
<path d="M16.8946 32.5163L14.4024 30.0241L11.9102 32.5163L14.4024 35.0085L16.8946 32.5163Z" fill="url(#paint16_linear_350_912)"/>
<path d="M51.2225 32.514L48.7303 30.0218L46.2382 32.514L48.7303 35.0061L51.2225 32.514Z" fill="url(#paint17_linear_350_912)"/>
</g>
</g>
<defs>
<linearGradient id="paint0_linear_350_912" x1="29.0302" y1="38.7158" x2="37.2073" y2="18.2699" gradientUnits="userSpaceOnUse">
<stop stop-color="#B63AE4"/>
<stop offset="1" stop-color="#23E0FF"/>
</linearGradient>
<linearGradient id="paint1_linear_350_912" x1="41.2524" y1="32.508" x2="27.7219" y2="32.508" gradientUnits="userSpaceOnUse">
<stop stop-color="#FFE496" stop-opacity="0"/>
<stop offset="0.94" stop-color="#EFEC53"/>
</linearGradient>
<linearGradient id="paint2_linear_350_912" x1="25.6726" y1="32.508" x2="37.3474" y2="32.508" gradientUnits="userSpaceOnUse">
<stop stop-color="#B63AE4"/>
<stop offset="1" stop-color="#23E0FF"/>
</linearGradient>
<linearGradient id="paint3_linear_350_912" x1="32.7549" y1="-31.5467" x2="32.7549" y2="131.707" gradientUnits="userSpaceOnUse">
<stop stop-color="#EB3C9C"/>
<stop offset="1" stop-color="#FFCD35"/>
</linearGradient>
<linearGradient id="paint4_linear_350_912" x1="30.6656" y1="-58.9615" x2="30.6656" y2="113.651" gradientUnits="userSpaceOnUse">
<stop stop-color="#EB3C9C"/>
<stop offset="1" stop-color="#FFCD35"/>
</linearGradient>
<linearGradient id="paint5_linear_350_912" x1="47.487" y1="10.9272" x2="6.41482" y2="30.0048" gradientUnits="userSpaceOnUse">
<stop stop-color="#FFE496" stop-opacity="0"/>
<stop offset="0.94" stop-color="#EFEC53"/>
</linearGradient>
<linearGradient id="paint6_linear_350_912" x1="15.6933" y1="53.6615" x2="55.3102" y2="32.835" gradientUnits="userSpaceOnUse">
<stop stop-color="#FFE496" stop-opacity="0"/>
<stop offset="0.94" stop-color="#EFEC53"/>
</linearGradient>
<linearGradient id="paint7_linear_350_912" x1="14.4065" y1="34.9443" x2="14.4065" y2="30.4319" gradientUnits="userSpaceOnUse">
<stop stop-color="#B63AE4"/>
<stop offset="1" stop-color="#23E0FF"/>
</linearGradient>
<linearGradient id="paint8_linear_350_912" x1="48.7359" y1="34.9467" x2="48.7359" y2="30.4343" gradientUnits="userSpaceOnUse">
<stop stop-color="#B63AE4"/>
<stop offset="1" stop-color="#23E0FF"/>
</linearGradient>
<linearGradient id="paint9_linear_350_912" x1="29.0302" y1="38.7158" x2="37.2073" y2="18.2699" gradientUnits="userSpaceOnUse">
<stop stop-color="#B63AE4"/>
<stop offset="1" stop-color="#23E0FF"/>
</linearGradient>
<linearGradient id="paint10_linear_350_912" x1="41.2524" y1="32.508" x2="27.7219" y2="32.508" gradientUnits="userSpaceOnUse">
<stop stop-color="#FFE496" stop-opacity="0"/>
<stop offset="0.94" stop-color="#EFEC53"/>
</linearGradient>
<linearGradient id="paint11_linear_350_912" x1="25.6726" y1="32.508" x2="37.3474" y2="32.508" gradientUnits="userSpaceOnUse">
<stop stop-color="#B63AE4"/>
<stop offset="1" stop-color="#23E0FF"/>
</linearGradient>
<linearGradient id="paint12_linear_350_912" x1="32.7549" y1="-31.5467" x2="32.7549" y2="131.707" gradientUnits="userSpaceOnUse">
<stop stop-color="#EB3C9C"/>
<stop offset="1" stop-color="#FFCD35"/>
</linearGradient>
<linearGradient id="paint13_linear_350_912" x1="30.6656" y1="-58.9615" x2="30.6656" y2="113.651" gradientUnits="userSpaceOnUse">
<stop stop-color="#EB3C9C"/>
<stop offset="1" stop-color="#FFCD35"/>
</linearGradient>
<linearGradient id="paint14_linear_350_912" x1="47.487" y1="10.9272" x2="6.41482" y2="30.0048" gradientUnits="userSpaceOnUse">
<stop stop-color="#FFE496" stop-opacity="0"/>
<stop offset="0.94" stop-color="#EFEC53"/>
</linearGradient>
<linearGradient id="paint15_linear_350_912" x1="15.6933" y1="53.6615" x2="55.3102" y2="32.835" gradientUnits="userSpaceOnUse">
<stop stop-color="#FFE496" stop-opacity="0"/>
<stop offset="0.94" stop-color="#EFEC53"/>
</linearGradient>
<linearGradient id="paint16_linear_350_912" x1="14.4065" y1="34.9443" x2="14.4065" y2="30.4319" gradientUnits="userSpaceOnUse">
<stop stop-color="#B63AE4"/>
<stop offset="1" stop-color="#23E0FF"/>
</linearGradient>
<linearGradient id="paint17_linear_350_912" x1="48.7359" y1="34.9467" x2="48.7359" y2="30.4343" gradientUnits="userSpaceOnUse">
<stop stop-color="#B63AE4"/>
<stop offset="1" stop-color="#23E0FF"/>
</linearGradient>
<clipPath id="clip0_350_912">
<rect width="63" height="63" fill="white"/>
</clipPath>
<clipPath id="clip1_350_912">
<rect width="63" height="63" fill="white"/>
</clipPath>
</defs>
</svg>
